<svg xmlns="http://www.w3.org/2000/svg" xmlns:xlink="http://www.w3.org/1999/xlink" width="185" height="186" viewBox="0 0 185 186">
    <defs>
        <path id="prefix__a" d="M0 0.032L184.966 0.032 184.966 184.997 0 184.997z"/>
        <path id="prefix__c" d="M3.23.043C1.418.043-.01 1.59.132 3.396L13.3 169.283c.075.949.867 1.681 1.818 1.681H155.81c.951 0 1.742-.732 1.817-1.68L170.795 3.395c.143-1.807-1.285-3.353-3.097-3.353H3.23z"/>
    </defs>
    <g fill="none" fill-rule="evenodd">
        <g transform="translate(0 .47)">
            <path fill="#FFF" d="M21.964 183.869c-3.903 0-7.202-3.042-7.51-6.925L1.151 9.274c-.165-2.082.553-4.157 1.972-5.692C4.544 2.043 6.563 1.16 8.66 1.16h167.645c2.097 0 4.115.883 5.537 2.422 1.418 1.535 2.137 3.61 1.972 5.692l-13.303 167.67c-.308 3.883-3.607 6.925-7.51 6.925H21.964z"/>
            <mask id="prefix__b" fill="#fff">
                <use xlink:href="#prefix__a"/>
            </mask>
            <path fill="#000" d="M176.306 2.288c3.736 0 6.68 3.18 6.384 6.896l-13.303 167.67c-.263 3.324-3.043 5.887-6.384 5.887H21.963c-3.341 0-6.121-2.563-6.384-5.886L2.276 9.185C1.98 5.466 4.924 2.287 8.66 2.287h167.646zm0-2.256H8.66c-2.41 0-4.73 1.015-6.365 2.785C.663 4.582-.163 6.968.027 9.363l13.303 167.67c.354 4.465 4.146 7.964 8.633 7.964h141.04c4.487 0 8.279-3.499 8.633-7.965L184.94 9.362c.19-2.394-.637-4.78-2.268-6.545-1.634-1.77-3.954-2.785-6.365-2.785z" mask="url(#prefix__b)"/>
        </g>
        <g transform="translate(7.019 7.488)">
            <mask id="prefix__d" fill="#fff">
                <use xlink:href="#prefix__c"/>
            </mask>
            <path fill="#E21E2D" d="M-4.764 123.07L40.35 123.07 40.35-3.501-4.764-3.501zM130.578 123.07L175.692 123.07 175.692-3.501 130.578-3.501z" mask="url(#prefix__d)"/>
        </g>
        <path fill="#000" d="M109.916 150.06c-.503 0-.894-.436-.84-.936l.012-.112c.137-2.1-.582-3.33-2.94-3.33l-7.295.007-1.95 8.889h10.443c.538 0 .937.497.82 1.022l-1.017 4.583c-.085.385-.426.657-.818.657H95.516s-1.202 5.446-1.245 5.681c-.402 1.758.799 2.67 1.605 3.063.04.02.082.04.124.058.345.154.534.53.452.9l-.555 2.505c-.085.382-.424.655-.816.655H82.364c-.534 0-.93-.494-.816-1.015l5.54-25.1c.565-2.214-.731-3.115-1.662-3.47-.032-.011-.064-.022-.094-.034-.416-.147-.657-.582-.56-1.013l.488-2.21c.093-.419.465-.718.895-.718h28.276c.536 0 .935.498.82 1.022l-1.83 8.24c-.085.384-.425.656-.817.656h-2.688m-42.528-9.204c.091-.417.46-.714.888-.714h13.826c.54 0 .94.5.823 1.026l-.47 2.124c-.08.36-.378.617-.745.657l-.104.01c-1.042.14-2.924.478-4.465 1.685l-11.495 9.558v.004l8.845 11.971c1.715 2.204 2.56 2.603 4.284 2.63.565.01.972.541.85 1.093l-.484 2.152c-.084.38-.421.65-.81.65h-6.888c-7.628 0-9.734-3.345-16.088-14.961-.002-.002-.005-.002-.006 0l-1.855 8.474c-.282 1.317.821 2.015 1.63 2.343l.102.04c.386.152.605.562.515.966l-.55 2.485c-.086.38-.423.653-.814.653H38.415c-.562 0-.978-.52-.857-1.068l.47-2.123c.085-.386.406-.674.797-.716l.047-.006c1.463-.169 2.998-1.093 3.945-5.62l3.62-16.57c.465-2.208-.639-3.048-1.59-3.42-.009-.004-.065-.024-.152-.053-.436-.15-.692-.603-.592-1.053l.492-2.214c.092-.419.464-.717.892-.717H60.67c.531 0 .926.492.811 1.01l-.484 2.185c-.07.32-.307.576-.62.673l-.115.036c-.71.23-1.835.814-2.18 2.228l-2.022 9.223c0 .003.003.005.006.003l11.776-9.787c.706-.583.526-1.361-.284-1.673l-.005-.002c-.46-.14-.735-.61-.631-1.08l.466-2.102m79.33-.018c.504.138.81.65.696 1.162l-1.791 8.061c-.086.385-.427.658-.82.658h-2.548c-.482 0-.865-.404-.84-.885.006-.104.007-.147.007-.15.123-2.628-1.537-4.593-5.294-4.592-6.245 0-10.787 5.125-11.382 11.857-.615 6.951 4.243 10.99 10.97 10.99 3.449-.001 6.179-.666 7.71-1.151.607-.192 1.2.334 1.08.961l-.79 4.165c-.068.356-.324.645-.67.755-1.378.438-5.248 1.47-11.172 1.47-14.075.003-19.786-8.093-18.901-16.345.786-7.35 5.648-18.175 24.821-18.179 3.672 0 6.61.588 8.923 1.223m-24.191-84.623c-.759 4.035-1.607 6.059-2.152 8.549-.566 2.588-1.677 6.371-2.756 6.47-1.09.327-1.529-.933-2.228 0-.417.555-.74 1.289-1.112 1.762-.237.31-.47 1.001-.474 1.378 0 .728-.04 3.08-.692 6.164-.982 4.654-2.768 8.045-4.623 10.185-3.553 4.098-6.881 4.758-7.277 4.967-.51.27-1.28.11-1.533-.01-.255-.117-.45-.424-.89-.854-.454-.424-.611.221-.628.386-.018.153.23 2.092-.264 2.97-1.066 1.887-2.09 2.05-2.661 4.4-.192.794-.058 1.993-1.006 1.45-2.318-1.323-5.638-4.907-6.325-8.382-.209-1.058-.013-2.238.632-4.25.373-1.18.638-2.496.638-3.253 0-1.343-.525-2.482 0-2.598.973-.217 1.416 2.302 1.868 2.041.786-.452.202-3.112.202-3.112s-.323-.756-1.7-1.08c-.794-.185-1.043-.779-.197-1.194.63-.31 1.364-.716 2.219-.589 5.713.81 7.357-.338 9.668-.962.454-.12.721-.173 1.077-.005.353.164 1.301.683 1.494 1.17.196.483-.007 2.379.296 3.806.309 1.433 1.315.13 1.566-.436.253-.562.512-1.948.564-2.3.056-.35.35-1.824.879-2.264 1.046-.869 1.415-2.01 1.583-2.457.174-.447.447-1.826.398-3.84-.05-2.01-.413-2.228-.899-2.66-.48-.43-1.055-.348-2.28-1.468-1.091-1.002-1.99-2.62-2.78-3.639-.792-1.016-2.105-2.108-3.603-2.474-1.493-.36-.873 1.017-.793 1.404.063.272.414 1.494-.084 1.897-.488.401-3.507 2.431-6.2 1.727-3.21-.837-4.32-2.624-4.385-4.35-.047-1.224.54-2.403 1.27-3.805.429-.82.601-2.188.773-3.5.137-1.05.418-2.57.647-3.11.164-.389.551-.812 1.422-.762.861.048 1.426.476 1.583 1.22.558 2.581 1.468 3.234 1.777 3.443.312.208.894-.21 1.121-.36.23-.15.814-.74.63-1.057-.278-.49-.432-.785-.494-1.073-.106-.491.509-.432.633-.333 1.006.792 1.955.862 3.693 1.152 3.042.507 3.478-.614 5.567-.252.271.047.787.274.955.587.138.268.393.885.648.994.253.098.873.136 1.193.194.442.074 1.234.025 1.1.842-.34 2.19-2.867 2.794-4.048 2.997-.488.084-.711.124-.79.194-.256.224-.266.91.028 1.353.209.312 1.164.332 2.472.08 1.364-.261 2.674-.92 3.709-2.532 1.096-1.707 1.698-5.467 1.826-6.17.123-.7.405-1.875.791-2.116.382-.24 2.162-.78 2.413-.737.299.052.516.196.657.884.14.696-.122 4.838-.127 5.463-.007.667.335.66.525.573.415-.191 1.523-.93 1.774-1.783.185-.633-.349-1.555-.08-2.431.417-1.366.828-1.73 1.113-1.702 1.736.166 2.092.927 1.677 3.133M97.913 78.488c-.646.236-2.51.67-3.413.725-.911.05-3.799.246-4.284.223-.595-.034-1.398-.325-2.052-.922-.132-.121-.274-.537.259-.547.99-.018 2.662-.546 8.42-.059.616.051.908.078 1.054.092.15.015.66.26.016.488m-14.163-2.34c-2.803-.035-4.1-1.08-4.3-1.39-.193-.303.13-.537.423-.632.662-.21 1.838-.804 2.315-1.166.48-.358 1.8-1.18 2.467-1.61.314-.205 2.117-.99 3.17-.255 1.582 1.104 3.06 1.841 5.764 1.676 1.74-.107 1.701-1.51 3.117-1.958 1.28-.403 1.525-.717 1.926-.952.516-.103.898-.233 1.458.289.71.661.968 1.182 1.79 2.112 1.125 1.27 2.367 1.863 2.751 1.938.382.078.658.39.662.517.003.127-.154.522-1.289.846-3.788 1.086-7.89.39-10.002-.454-1.072-.428-2.114-.545-3.29.033-1.185.58-4.346 1.039-6.962 1.007M82.403 91.73c-2.147.066-7.76-3.321-10.209-12.937-.635-2.473.924-4.48 1.892-4.825.572-.21.872-.276 1.065-.301.199-.025 1.176-.02 1.142 1.085-.033.894.71 8.351 2.656 11.05.483.669.93.694 1.151.103.204-.55.541-1.258.65-1.527.08-.194.788-1.277.998-.455.447 1.747 1.493 5.341 1.933 6.27.73 1.538-.473 1.513-1.278 1.537M71.12 63.037c-.15-.648.138-1.617 1.663-.64.244.157.96.483 1.757.711.482.14.794-.064.93-.414.142-.348.537-1.041-.141-1.374-.676-.337-2.347-.627-3.301-2.976-.172-.42.117-.902.385-1.026.271-.121.606-.06.92.237.31.291.976.934 1.573.958.55.026.64-.197.751-.326.462-.52 1.786-2.455 4.532-2.12 1.132.14 2.177.39 2.558.42.271.017 1.025.051 1.746-.084.823-.154 2.05-.41 1.45.285-.489.564-.897.798-.47 1.41.023.031.045.06.065.09.386.543.396 1.266.004 1.804l-.047.07c-.607.788-1.862 1.695-4.456 1.86-1.182.075-1.256.031-1.28.707-.01.26-.006.398.031.58.071.34.289.481 1.11.532.594.037 1.683-.08 1.685-.08.267-.081.582.09.41.313-.026.033-.135.196-.154.22-.589.761-.772 1.457-.827 1.872-.046.352-.25.666-.56.828l-.013.006c-.379.194-1.91.525-3.114 1.52-1.198.994-3.705 1.813-4.782.591-1.078-1.218-1.956-3.945-2.425-5.974m-.779-12.046c-.337.035-.623-.17-.99-.25-.427-.093-.688.038-.865-.198-.157-.24-.128-.469.116-.562.243-.09.42-.023.667-.07.5-.095 1.11-.668 1.562-.032.292.413.042 1.054-.49 1.112M66.18 66.27c-1.083-.72-1.024-1.665-1.3-2.594-.584-1.97-1.212-4.343-1.755-6.362-.33-1.22-.413-4.083 1.243-4.083.834 0 1.457.262 1.724 1.048.593 1.749-.525 1.444-.238 3.511.204 1.462.482 2.902.944 5.385.212 1.144.585 3.897-.42 3.228M62.99 38.189c.603-1.633 1.701-3.025 2.45-4.009.687-.899.363-2.086.012-3.149-.227-.98-.856-1.993-.952-2.26-.07-.189-.072-.34-.012-.472l.128-.085 1.326-.113c3.796-.485 7.143-1.818 8.154-2.386.498-.279 1.026-.499 1.567-.682.633-.215 1.289-.43 1.945-.517.496-.081 1.084-.158 1.587-.213.75-.085 1.937.44 1.673.597-.635.38-3.584 1.062-6.179 4.16-1.59 1.894-1.958 3.065-2.494 3.938-.543.875-.978 1.084-1.742 1.742-.373.319-1.133.986-1.506 2.047-.376 1.07-1.825 4.806-2.014 10.74-.02.688-.14 1.416-.793 1.665l-.005.002c-.537.217-.97.572-1.06.185-.345-1.302-1.143-4.11-1.477-5.889-.106-.562-.23-1.116-.363-1.671-.364-1.517-.528-2.863-.245-3.63M74.53 52.617c-.69.438-1.366.945-1.88 1.277-.628.415-1.51.018-1.252-.862.126-.428.734-1.524 1.755-1.717.133-.028.639-.124 1.063-.175.494-.053 1.02-.098 1.289-.11.723-.03.802.55.311.85-.325.2-.827.447-1.286.737m.952 1.296c.185-.15.266-.15.889-.493.443-.245.948-.548 1.458-.88.925-.6 2.675-1.222 3.418-1.214.537.006 1.476.238 1.975.782.521.568.664 1.23-.017 1.115-.673-.116-1.39-.298-2.686 0-1.451.331-2.436.887-3.136 1.2-.716.332-1.441.412-1.68.4-.232-.015-.89-.368-.22-.91m10.714 12.85c.17.312.224.835.176 1.05-.05.266-.98.612-1.753-.545-.772-1.149-.41-2.562.05-3.117.727-.89 1.84-.243 1.68.086-.557 1.142-.31 2.217-.153 2.527m23.2-11.281c-.285.143-1.358-.217-1.655-.383-.594-.333-1.016-.569-1.815-1.251-.53-.448-1.496-.658-2.41-.614-.7.034-1.397.184-1.934.309-.53.128-.57-.353-.413-.535.159-.181.903-.863 2.527-1.288.236-.063.693-.041.923-.017.678.076 1.488.526 2.071 1.093.583.57 1.762 1.574 2.4 1.963.303.182.979.379.306.723m-.663-2.686s-1.004-.686-1.326-1.243c-.158-.276-.122-.506.303-.51 1.505-.015 2.884-.051 3.555.512.489.41.502 1.27.262 1.823-.276.633-.828.453-1.144.408-.314-.047-1.65-.99-1.65-.99m7.547-2.254c-.228.247-.43.099-.9.216-.366.089-.61.295-.947.265-.533-.048-.795-.685-.511-1.102.44-.644 1.062-.083 1.564.004.246.043.423-.029.668.059.245.087.279.314.126.558m-43.402-29.1c.23-.355.789-.875 1.346-1.278.585-.418 3.461-2.573 6.133-3.387.495-.147.622-.222.938-.298.4-.104.74-.967-.093-1.093-.875-.126-1.232-.069-1.698-.053-.466.01-.691-.24-.353-.607.344-.37.963-.745 2.053-1.182 2.378-.948 6.593-1.454 8.56-1.629 2.564-.221 2.874-.213 4.543-.085 1.564.118 2.79.41 3.37.512 2.944.533 6.335 1.896 9.35 3.55 1.588.942 3.117 1.994 4.54 3.103 4.32 3.368 9.282 9.773 8.558 23.264-.087 1.593-.275 2.476-.38 2.86-.107.391-.624 1.058-.898.176-.892-2.886-2.04-7.974-4.652-11.992-.364-.56-.925-.508-.87.082.021.247.142 2.82.079 3.317-.424 3.314.592 2.023 2.087 5.579.463 1.1 1.06 3.275 1.209 4.677.039.352.086.76.095 1.153.01.495-.235.528-.235.528-1.024-.003-2.808-.489-3.77-.52-1.095-.035-8.692-.111-11.546.114-2.858.218-4.415 1.246-6.032 2.57-.268.22-.65.425-.866.533-.108.054-.229.07-.347.05-.131-.023-.344-.064-.682-.134-.698-.144-1.541-.2-2.223.009-.681.203-1.002.379-1.738-.048-1.048-.612-2.655-3.058-8.264-3.104-3.178-.025-7.346-.068-9.8.04-.793.035-1.207.124-1.41.12-.018-.094-.022-.223-.023-.249-.042-4.478 2.881-3.486 3.216-4.65.835-2.9 1.03-9.877 6.097-14.161 2.422-2.047 3.68-2.134 5.929-2.134 2.422 0 4.785.633 5.99 1.23.96.473 1.435.79 1.812.512.376-.287 1.384-1.2 1.8-1.515.418-.32.26-.817-.134-1.143-.379-.307-3.973-4.827-9.483-5.738-1.262-.21-2.194-.402-3.34-.405-.62-.023-1.17-.025-2.61.15-2.109.255-4.866 1.429-6.64 2.133-.095-.102.271-.697.382-.856m-1.82 62.82c.054 2.313 1.396 8.42 9.154 14.216 3.235 2.417 4.719 3.507 5.145 3.803l-.002.017c.213.149-1.147.114-1.521.15-.608.058-2.676-.13-4.332.177-1.494.276-1.291.636-1.44 1.717-.117.856-.007 2.214-.05 3.371-.044 1.157-.108 1.98.382 2.54.484.55.79.638 2.84.511 1.95-.119 7.35-.123 8-.255.836-.171.703.132.221 1.165-.824 1.77-3.514 9.886-7.694 17.599-.587 1.08 1.061.57 2.468 1.247 2.542 1.227 2.459 1.568 3.127.289.724-1.387 4.392-10.02 4.96-12.686.073-.348.223-.65.28-.127.04.376.095 11.283-.21 14.723-.015.182.029.372.157.504.183.188.46.266.695.322h.007c1.262-.422 2.791-.732 4.09-.518.114-.013.224-.038.33-.071.07-.058.132-.127.176-.208.102-.184.153-.39.199-.594l.01-.047c.063-.29.115-.584.146-.88.019-.174.03-.35.042-.524.014-.227.024-.455.032-.682.01-.275.016-.55.02-.823.005-.317.007-.634.007-.95 0-.354-.004-.709-.009-1.062-.006-.387-.015-.258-.026-.643-.012-.413-.027-.827-.044-1.24-.019-.436-.04-.871-.066-1.307-.025-.453-.053-.906-.086-1.358-.033-.465-.07-.93-.112-1.396-.04-.473-.085-.945-.136-1.417-.05-.475-.104-.95-.164-1.424-.059-.472-.122-.943-.193-1.414-.068-.466-.142-.93-.223-1.393-.078-.452-.164-.647-.255-1.097-.09-.435-.186-.869-.29-1.3-.1-.414-.209-.825-.326-1.233-.095-.324-.195-.647-.301-.97-.02-.051-.107-.494-.095-.552.033-.159.234-.044.453-.086 0 0 .102-.02.16-.029 1.389-.186 3.805-.062 4.35-.04.538.017 3.285.279 4.06.35.767.074 1.7.252 1.66-2.08-.011-.622-.013-.993-.011-1.573v-.236l.005-.432.004-.244c0-.08.002-.16.003-.235 0-.072.002-.145.003-.211.005-.126.007-.248.012-.358.001-.036.001-.067.003-.1.001-.085.005-.162.009-.234 0-.036.002-.071.004-.106l.01-.168c.001-.015.001-.038.003-.051.007-.07.01-.146.013-.229.018-.569-.056-1.612-1.134-1.889-1.241-.31-3.424-.384-5.387-.214-.273.025-.334 0-.25-.077l.002-.017c.423-.302 3.257-1.868 6.499-4.769 3.566-3.2 5.268-4.9 6.358-7.214 0 0 3.903-7.573 3.707-13.985-.04-1.295.17-1.186.975-1.163.242.007 1.164-.057 1.66-.386 1.657-.377 3.119-6.03 3.119-6.03s2.487-8.583 3.09-12.094c.536-3.122.408-4.947-1.496-5.874l-.32-.18c-.142-.082-.214-.25-.17-.409.037-.133.076-.289.096-.405.93-3.235 2.595-7.33 2.218-8.989-.066-.476-.47-.631-.61-.726-.194-.132-.932-.955-1.137-1.534-.031-.084-.042-.173-.05-.261-.526-6.108-2.696-13.77-9.16-20.444-.01-.006-.445-.405-.71-.647-.554-.498-1.262-1.119-2.077-1.73-1.722-1.287-3.095-2.274-5.926-3.688-.219-.107-2.345-1.075-5.487-1.843-.294-.08-.59-.156-.89-.226-.461-.108-1.182-.241-2.004-.354-1.936-.303-4.086-.466-6.32-.328v.001c-.267.013-.578.029-.66.03-.134.002-.274.009-.41.014-.152.006-.3.01-.459.015-.473.023-1.097.094-1.752.188-1.057.153-2.191.364-2.89.528-.782.19-1.836.41-3.153.788-.541.158-1.086.326-1.628.502-.153.048-.305.095-.455.144-.586.193-1.174.393-1.768.607-.431.151-2.263.944-2.662 1.128-.191.088-.454.201-.738.316-1.292.41-1.563 1.157-1.61 1.567-.03.264-.09.526-.202.766-1.861 3.954-6.238 4.337-7.976 4.424-.455.022-.856.089-.712.53.37 1.136 2.417 3.253 3.67 3.637-.018.181-1.073.41-1.294.47-.505.13-2.58-.052-2.682-.031l-.024.003c-2.353.198-3.075 1.8-3.286 2.56-.066.235-.028.489.107.693.519.791 1.065 1.437 1.477 2.48l.013.035c.106.274.204.578.29.918.05.447.408.913-.045 1.79-.802 1.556-2.808 2.042-3.108 3.586-.427 2.196.331 3.634 1.162 7.263.57 2.489 1.186 5.06 1.627 6.227.023.062-.014.126-.078.138-.176.034-.482.098-.584.132-1.162.462-1.527 1.377-1.66 3.165-.291 3.956 2.63 10.057 3.534 15.284.305 1.764 1.118 4.59 2.47 5.748.312.267.965.438 1.37.508 1.057.184 1.516-.485 1.576.576.013.221.088.817.098 1.154.181 3.75 2.192 7.474 2.192 7.474"/>
    </g>
</svg>
